<svg width="26" height="28" viewBox="0 0 26 28" fill="none" xmlns="http://www.w3.org/2000/svg">
<path d="M3.56809 0.758594C2.88248 -0.107439 1.62463 -0.253701 0.758594 0.431908C-0.107439 1.11752 -0.253701 2.37537 0.431908 3.24141L3.56809 0.758594ZM20.769 27.9866C21.8662 28.1142 22.859 27.3282 22.9866 26.231L25.0656 8.35147C25.1932 7.25429 24.4072 6.26143 23.31 6.13385C22.2128 6.00627 21.22 6.79229 21.0924 7.88947L19.2444 23.7824L3.35147 21.9344C2.25429 21.8068 1.26143 22.5928 1.13385 23.69C1.00627 24.7872 1.79229 25.78 2.88947 25.9076L20.769 27.9866ZM0.431908 3.24141L19.4319 27.2414L22.5681 24.7586L3.56809 0.758594L0.431908 3.24141Z" fill="white"/>
</svg>
