<svg width="606" height="182" viewBox="0 0 606 182" fill="none" xmlns="http://www.w3.org/2000/svg">
<path d="M6 6L39.2916 56.6953C42.8419 62.1016 45.0132 68.5515 45.5594 75.3138C48.0068 105.615 79.6047 119.228 98.5614 98.1483L114.331 80.6132C117.069 77.5675 120.153 74.9667 123.496 72.882L177.948 38.9314C188.457 32.3786 200.736 30.7366 212.258 34.3427L215.186 35.2589C226.97 38.9466 237.037 47.8321 243.231 60.0113L255.628 84.3869C259.6 92.199 265.207 98.7285 271.93 103.374L282.737 110.842C290.211 116.007 299.316 116.925 307.448 113.333L308.668 112.794C326.697 104.831 346.026 120.248 346.026 142.592C346.026 158.621 356.3 172.159 370.028 174.219L379.43 175.631C394.032 177.823 408.428 170.135 416.469 155.852L436.185 120.829C444.801 105.523 459.512 96.2935 475.291 96.2935H511" stroke="white" stroke-width="11" stroke-linecap="round" stroke-linejoin="round" stroke-dasharray="18 18"/>
<line x1="6" y1="-6" x2="79.653" y2="-6" transform="matrix(0.644399 0.764689 -0.764687 0.644401 543.965 48.6836)" stroke="white" stroke-width="12" stroke-linecap="round"/>
<line x1="597.777" y1="54.8806" x2="555.133" y2="114.933" stroke="white" stroke-width="12" stroke-linecap="round"/>
</svg>
