<svg width="217" height="53" viewBox="0 0 217 53" fill="none" xmlns="http://www.w3.org/2000/svg">
<g filter="url(#filter0_di_746_205)">
<path d="M16.9071 44.66C14.3037 44.66 11.9021 44.1833 9.70207 43.23C7.53874 42.24 5.7604 40.8467 4.36707 39.05L9.31707 33.11C11.4071 35.9333 13.7904 37.345 16.4671 37.345C20.0971 37.345 21.9121 35.2183 21.9121 30.965V12.65H8.38207V5.5H30.7671V30.47C30.7671 35.2 29.5937 38.7567 27.2471 41.14C24.9004 43.4867 21.4537 44.66 16.9071 44.66ZM53.0429 44.44C49.9263 44.44 47.1213 43.7983 44.6279 42.515C42.1713 41.195 40.2463 39.38 38.8529 37.07C37.4596 34.76 36.7629 32.1383 36.7629 29.205C36.7629 26.2717 37.4596 23.65 38.8529 21.34C40.2463 19.03 42.1713 17.2333 44.6279 15.95C47.1213 14.63 49.9263 13.97 53.0429 13.97C56.1596 13.97 58.9463 14.63 61.4029 15.95C63.8596 17.2333 65.7846 19.03 67.1779 21.34C68.5713 23.65 69.2679 26.2717 69.2679 29.205C69.2679 32.1383 68.5713 34.76 67.1779 37.07C65.7846 39.38 63.8596 41.195 61.4029 42.515C58.9463 43.7983 56.1596 44.44 53.0429 44.44ZM53.0429 37.4C55.2429 37.4 57.0396 36.6667 58.4329 35.2C59.8629 33.6967 60.5779 31.6983 60.5779 29.205C60.5779 26.7117 59.8629 24.7317 58.4329 23.265C57.0396 21.7617 55.2429 21.01 53.0429 21.01C50.8429 21.01 49.0279 21.7617 47.5979 23.265C46.1679 24.7317 45.4529 26.7117 45.4529 29.205C45.4529 31.6983 46.1679 33.6967 47.5979 35.2C49.0279 36.6667 50.8429 37.4 53.0429 37.4ZM75.003 14.41H83.583V44H75.003V14.41ZM79.293 10.285C77.7163 10.285 76.433 9.82667 75.443 8.91C74.453 7.99333 73.958 6.85666 73.958 5.5C73.958 4.14333 74.453 3.00666 75.443 2.09C76.433 1.17333 77.7163 0.714997 79.293 0.714997C80.8696 0.714997 82.153 1.155 83.143 2.035C84.133 2.915 84.628 4.015 84.628 5.335C84.628 6.765 84.133 7.95667 83.143 8.91C82.153 9.82667 80.8696 10.285 79.293 10.285ZM109.531 13.97C113.198 13.97 116.149 15.07 118.386 17.27C120.659 19.47 121.796 22.7333 121.796 27.06V44H113.216V28.38C113.216 26.0333 112.703 24.2917 111.676 23.155C110.649 21.9817 109.164 21.395 107.221 21.395C105.058 21.395 103.334 22.0733 102.051 23.43C100.768 24.75 100.126 26.73 100.126 29.37V44H91.5459V14.41H99.7409V17.875C100.878 16.6283 102.289 15.675 103.976 15.015C105.663 14.3183 107.514 13.97 109.531 13.97ZM162.859 44.66C157.359 44.66 153.069 43.1383 149.989 40.095C146.946 37.0517 145.424 32.7067 145.424 27.06V5.5H154.334V26.73C154.334 33.6233 157.194 37.07 162.914 37.07C165.701 37.07 167.828 36.245 169.294 34.595C170.761 32.9083 171.494 30.2867 171.494 26.73V5.5H180.294V27.06C180.294 32.7067 178.754 37.0517 175.674 40.095C172.631 43.1383 168.359 44.66 162.859 44.66ZM198.449 44.44C195.993 44.44 193.591 44.1467 191.244 43.56C188.898 42.9367 187.028 42.1667 185.634 41.25L188.494 35.09C189.814 35.9333 191.409 36.63 193.279 37.18C195.149 37.6933 196.983 37.95 198.779 37.95C202.409 37.95 204.224 37.0517 204.224 35.255C204.224 34.4117 203.729 33.8067 202.739 33.44C201.749 33.0733 200.228 32.7617 198.174 32.505C195.754 32.1383 193.756 31.7167 192.179 31.24C190.603 30.7633 189.228 29.92 188.054 28.71C186.918 27.5 186.349 25.7767 186.349 23.54C186.349 21.67 186.881 20.02 187.944 18.59C189.044 17.1233 190.621 15.9867 192.674 15.18C194.764 14.3733 197.221 13.97 200.044 13.97C202.134 13.97 204.206 14.2083 206.259 14.685C208.349 15.125 210.073 15.7483 211.429 16.555L208.569 22.66C205.966 21.1933 203.124 20.46 200.044 20.46C198.211 20.46 196.836 20.7167 195.919 21.23C195.003 21.7433 194.544 22.4033 194.544 23.21C194.544 24.1267 195.039 24.7683 196.029 25.135C197.019 25.5017 198.596 25.85 200.759 26.18C203.179 26.5833 205.159 27.0233 206.699 27.5C208.239 27.94 209.578 28.765 210.714 29.975C211.851 31.185 212.419 32.8717 212.419 35.035C212.419 36.8683 211.869 38.5 210.769 39.93C209.669 41.36 208.056 42.4783 205.929 43.285C203.839 44.055 201.346 44.44 198.449 44.44Z" fill="white"/>
</g>
<defs>
<filter id="filter0_di_746_205" x="0.367065" y="0.714966" width="216.052" height="51.9451" filterUnits="userSpaceOnUse" color-interpolation-filters="sRGB">
<feFlood flood-opacity="0" result="BackgroundImageFix"/>
<feColorMatrix in="SourceAlpha" type="matrix" values="0 0 0 0 0 0 0 0 0 0 0 0 0 0 0 0 0 0 127 0" result="hardAlpha"/>
<feOffset dy="4"/>
<feGaussianBlur stdDeviation="2"/>
<feComposite in2="hardAlpha" operator="out"/>
<feColorMatrix type="matrix" values="0 0 0 0 0 0 0 0 0 0 0 0 0 0 0 0 0 0 0.25 0"/>
<feBlend mode="normal" in2="BackgroundImageFix" result="effect1_dropShadow_746_205"/>
<feBlend mode="normal" in="SourceGraphic" in2="effect1_dropShadow_746_205" result="shape"/>
<feColorMatrix in="SourceAlpha" type="matrix" values="0 0 0 0 0 0 0 0 0 0 0 0 0 0 0 0 0 0 127 0" result="hardAlpha"/>
<feOffset dy="4"/>
<feGaussianBlur stdDeviation="2"/>
<feComposite in2="hardAlpha" operator="arithmetic" k2="-1" k3="1"/>
<feColorMatrix type="matrix" values="0 0 0 0 0 0 0 0 0 0 0 0 0 0 0 0 0 0 0.25 0"/>
<feBlend mode="normal" in2="shape" result="effect2_innerShadow_746_205"/>
</filter>
</defs>
</svg>
