<svg width="947" height="118" viewBox="0 0 947 118" fill="none" xmlns="http://www.w3.org/2000/svg">
<path d="M2 3H934C939.523 3 944 7.47715 944 13V96C944 107.046 935.046 116 924 116H2V3Z" fill="#1C1818"/>
<g style="mix-blend-mode:multiply" opacity="0.5" filter="url(#filter0_f_908_682)">
<path d="M16.7477 117L16.7477 2.71652C16.7477 2.32081 17.0684 2.00001 17.4642 2.00001V2.00001C18.2556 2.00001 18.8972 2.6416 18.8972 3.43304L18.8972 117H16.7477Z" fill="#F20303" fill-opacity="0.05"/>
<path d="M22.1213 117L22.1213 2.71652C22.1213 2.32081 22.4421 2.00001 22.8378 2.00001V2.00001C23.6293 2.00001 24.2709 2.6416 24.2709 3.43304L24.2709 117H22.1213Z" fill="#F20303" fill-opacity="0.05"/>
<path d="M27.4953 117L27.4953 2.71652C27.4953 2.32081 27.816 2.00001 28.2118 2.00001V2.00001C29.0032 2.00001 29.6448 2.6416 29.6448 3.43304L29.6448 117H27.4953Z" fill="#F20303" fill-opacity="0.05"/>
<path d="M32.8691 117L32.8691 2.71652C32.8691 2.32081 33.1899 2.00001 33.5856 2.00001V2.00001C34.377 2.00001 35.0186 2.6416 35.0186 3.43304L35.0186 117H32.8691Z" fill="#F20303" fill-opacity="0.05"/>
<path d="M38.243 117L38.243 2.71652C38.243 2.32081 38.5638 2.00001 38.9595 2.00001V2.00001C39.7509 2.00001 40.3925 2.6416 40.3925 3.43304L40.3925 117H38.243Z" fill="#F20303" fill-opacity="0.05"/>
<path d="M43.6168 117L43.6168 2.71652C43.6168 2.32081 43.9376 2.00001 44.3333 2.00001V2.00001C45.1247 2.00001 45.7663 2.6416 45.7663 3.43304L45.7663 117H43.6168Z" fill="#F20303" fill-opacity="0.05"/>
<path d="M48.9906 117L48.9906 2.71652C48.9906 2.32081 49.3114 2.00001 49.7071 2.00001V2.00001C50.4985 2.00001 51.1401 2.6416 51.1401 3.43304L51.1401 117H48.9906Z" fill="#F20303" fill-opacity="0.05"/>
<path d="M54.3644 117L54.3644 2.71652C54.3644 2.32081 54.6852 2.00001 55.0809 2.00001V2.00001C55.8723 2.00001 56.5139 2.6416 56.5139 3.43304L56.5139 117H54.3644Z" fill="#F20303" fill-opacity="0.05"/>
<path d="M59.7382 117L59.7382 2.71652C59.7382 2.32081 60.059 2.00001 60.4547 2.00001V2.00001C61.2461 2.00001 61.8877 2.6416 61.8877 3.43304L61.8877 117H59.7382Z" fill="#F20303" fill-opacity="0.05"/>
<path d="M65.1121 117L65.1121 2.71652C65.1121 2.32081 65.4329 2.00001 65.8286 2.00001V2.00001C66.6201 2.00001 67.2616 2.6416 67.2616 3.43304L67.2616 117H65.1121Z" fill="#F20303" fill-opacity="0.05"/>
<path d="M70.4859 117L70.4859 2.71652C70.4859 2.32081 70.8067 2.00001 71.2024 2.00001V2.00001C71.9938 2.00001 72.6354 2.6416 72.6354 3.43304L72.6354 117H70.4859Z" fill="#F20303" fill-opacity="0.05"/>
<path d="M75.8597 117L75.8597 2.71652C75.8597 2.32081 76.1805 2.00001 76.5762 2.00001V2.00001C77.3677 2.00001 78.0092 2.6416 78.0092 3.43304L78.0092 117H75.8597Z" fill="#F20303" fill-opacity="0.05"/>
<path d="M81.2335 117L81.2335 2.71652C81.2335 2.32081 81.5543 2.00001 81.95 2.00001V2.00001C82.7415 2.00001 83.383 2.6416 83.383 3.43304L83.383 117H81.2335Z" fill="#F20303" fill-opacity="0.05"/>
<path d="M86.6074 117L86.6074 2.71652C86.6074 2.32081 86.9282 2.00001 87.3239 2.00001V2.00001C88.1154 2.00001 88.757 2.6416 88.757 3.43304L88.757 117H86.6074Z" fill="#F20303" fill-opacity="0.05"/>
<path d="M91.9812 117L91.9812 2.71652C91.9812 2.32081 92.302 2.00001 92.6977 2.00001V2.00001C93.4892 2.00001 94.1308 2.6416 94.1308 3.43304L94.1308 117H91.9812Z" fill="#F20303" fill-opacity="0.05"/>
<path d="M97.3551 117L97.3551 2.71652C97.3551 2.32081 97.6759 2.00001 98.0717 2.00001V2.00001C98.8631 2.00001 99.5047 2.6416 99.5047 3.43304L99.5047 117H97.3551Z" fill="#F20303" fill-opacity="0.05"/>
<path d="M102.729 117L102.729 2.71652C102.729 2.32081 103.05 2.00001 103.445 2.00001V2.00001C104.237 2.00001 104.878 2.6416 104.878 3.43304L104.878 117H102.729Z" fill="#F20303" fill-opacity="0.05"/>
<path d="M108.103 117L108.103 2.71652C108.103 2.32081 108.423 2.00001 108.819 2.00001V2.00001C109.611 2.00001 110.252 2.6416 110.252 3.43304L110.252 117H108.103Z" fill="#F20303" fill-opacity="0.05"/>
<path d="M113.477 117L113.477 2.71652C113.477 2.32081 113.797 2.00001 114.193 2.00001V2.00001C114.985 2.00001 115.626 2.6416 115.626 3.43304L115.626 117H113.477Z" fill="#F20303" fill-opacity="0.05"/>
<path d="M118.85 117L118.85 2.71652C118.85 2.32081 119.171 2.00001 119.567 2.00001V2.00001C120.358 2.00001 121 2.6416 121 3.43304L121 117H118.85Z" fill="#F20303" fill-opacity="0.05"/>
<path d="M124 117L124 2.71652C124 2.32081 124.321 2.00001 124.716 2.00001V2.00001C125.508 2.00001 126.149 2.6416 126.149 3.43304L126.149 117H124Z" fill="#F20303" fill-opacity="0.05"/>
<path d="M129.149 117L129.149 2.71652C129.149 2.32081 129.47 2.00001 129.866 2.00001V2.00001C130.657 2.00001 131.299 2.6416 131.299 3.43304L131.299 117H129.149Z" fill="#F20303" fill-opacity="0.05"/>
<path d="M134.299 117L134.299 2.71652C134.299 2.32081 134.62 2.00001 135.016 2.00001V2.00001C135.807 2.00001 136.449 2.6416 136.449 3.43304L136.449 117H134.299Z" fill="#F20303" fill-opacity="0.05"/>
<path d="M139.449 117L139.449 2.71652C139.449 2.32081 139.769 2.00001 140.165 2.00001V2.00001C140.956 2.00001 141.598 2.6416 141.598 3.43304L141.598 117H139.449Z" fill="#F20303" fill-opacity="0.05"/>
<path d="M144.598 117L144.598 2.71652C144.598 2.32081 144.919 2.00001 145.315 2.00001V2.00001C146.106 2.00001 146.748 2.6416 146.748 3.43304L146.748 117H144.598Z" fill="#F20303" fill-opacity="0.05"/>
<path d="M149.748 117L149.748 2.71652C149.748 2.32081 150.068 2.00001 150.464 2.00001V2.00001C151.256 2.00001 151.897 2.6416 151.897 3.43304L151.897 117H149.748Z" fill="#F20303" fill-opacity="0.05"/>
<path d="M154.897 117L154.897 2.71652C154.897 2.32081 155.218 2.00001 155.614 2.00001V2.00001C156.405 2.00001 157.047 2.6416 157.047 3.43304L157.047 117H154.897Z" fill="#F20303" fill-opacity="0.05"/>
<path d="M160.047 117L160.047 2.71652C160.047 2.32081 160.367 2.00001 160.763 2.00001V2.00001C161.555 2.00001 162.196 2.6416 162.196 3.43304L162.196 117H160.047Z" fill="#F20303" fill-opacity="0.05"/>
<path d="M165.196 117L165.196 2.71652C165.196 2.32081 165.517 2.00001 165.913 2.00001V2.00001C166.704 2.00001 167.346 2.6416 167.346 3.43304L167.346 117H165.196Z" fill="#F20303" fill-opacity="0.05"/>
<path d="M170.346 117L170.346 2.71652C170.346 2.32081 170.667 2.00001 171.062 2.00001V2.00001C171.854 2.00001 172.495 2.6416 172.495 3.43304L172.495 117H170.346Z" fill="#F20303" fill-opacity="0.05"/>
<path d="M175.495 117L175.495 2.71652C175.495 2.32081 175.816 2.00001 176.212 2.00001V2.00001C177.003 2.00001 177.645 2.6416 177.645 3.43304L177.645 117H175.495Z" fill="#F20303" fill-opacity="0.05"/>
<path d="M180.645 117L180.645 2.71652C180.645 2.32081 180.966 2.00001 181.361 2.00001V2.00001C182.153 2.00001 182.794 2.6416 182.794 3.43304L182.794 117H180.645Z" fill="#F20303" fill-opacity="0.05"/>
<path d="M185.794 117L185.794 2.71652C185.794 2.32081 186.115 2.00001 186.511 2.00001V2.00001C187.302 2.00001 187.944 2.6416 187.944 3.43304L187.944 117H185.794Z" fill="#F20303" fill-opacity="0.05"/>
<path d="M190.944 117L190.944 2.71652C190.944 2.32081 191.265 2.00001 191.66 2.00001V2.00001C192.452 2.00001 193.093 2.6416 193.093 3.43304L193.093 117H190.944Z" fill="#F20303" fill-opacity="0.05"/>
<path d="M196.093 117L196.093 2.71652C196.093 2.32081 196.414 2.00001 196.81 2.00001V2.00001C197.601 2.00001 198.243 2.6416 198.243 3.43304L198.243 117H196.093Z" fill="#F20303" fill-opacity="0.05"/>
<path d="M201.243 117L201.243 2.71652C201.243 2.32081 201.564 2.00001 201.959 2.00001V2.00001C202.751 2.00001 203.392 2.6416 203.392 3.43304L203.392 117H201.243Z" fill="#F20303" fill-opacity="0.05"/>
<path d="M206.392 117L206.392 2.71652C206.392 2.32081 206.713 2.00001 207.109 2.00001V2.00001C207.9 2.00001 208.542 2.6416 208.542 3.43304L208.542 117H206.392Z" fill="#F20303" fill-opacity="0.05"/>
<path d="M211.542 117L211.542 2.71652C211.542 2.32081 211.863 2.00001 212.259 2.00001V2.00001C213.05 2.00001 213.692 2.6416 213.692 3.43304L213.692 117H211.542Z" fill="#F20303" fill-opacity="0.05"/>
<path d="M216.692 117L216.692 2.71652C216.692 2.32081 217.012 2.00001 217.408 2.00001V2.00001C218.2 2.00001 218.841 2.6416 218.841 3.43304L218.841 117H216.692Z" fill="#F20303" fill-opacity="0.05"/>
<path d="M221.841 117L221.841 2.71652C221.841 2.32081 222.162 2.00001 222.558 2.00001V2.00001C223.349 2.00001 223.991 2.6416 223.991 3.43304L223.991 117H221.841Z" fill="#F20303" fill-opacity="0.05"/>
<path d="M226.991 117L226.991 2.71652C226.991 2.32081 227.311 2.00001 227.707 2.00001V2.00001C228.499 2.00001 229.14 2.6416 229.14 3.43304L229.14 117H226.991Z" fill="#F20303" fill-opacity="0.05"/>
<path d="M232.14 117L232.14 2.71652C232.14 2.32081 232.461 2.00001 232.857 2.00001V2.00001C233.648 2.00001 234.29 2.6416 234.29 3.43304L234.29 117H232.14Z" fill="#F20303" fill-opacity="0.05"/>
<path d="M237.29 117L237.29 2.71652C237.29 2.32081 237.611 2.00001 238.006 2.00001V2.00001C238.798 2.00001 239.439 2.6416 239.439 3.43304L239.439 117H237.29Z" fill="#F20303" fill-opacity="0.05"/>
<path d="M242.439 117L242.439 2.71652C242.439 2.32081 242.76 2.00001 243.156 2.00001V2.00001C243.947 2.00001 244.589 2.6416 244.589 3.43304L244.589 117H242.439Z" fill="#F20303" fill-opacity="0.05"/>
<path d="M247.589 117L247.589 2.71652C247.589 2.32081 247.91 2.00001 248.305 2.00001V2.00001C249.097 2.00001 249.738 2.6416 249.738 3.43304L249.738 117H247.589Z" fill="#F20303" fill-opacity="0.05"/>
<path d="M252.738 117L252.738 2.71652C252.738 2.32081 253.059 2.00001 253.455 2.00001V2.00001C254.246 2.00001 254.888 2.6416 254.888 3.43304L254.888 117H252.738Z" fill="#F20303" fill-opacity="0.05"/>
<path d="M257.888 117L257.888 2.71652C257.888 2.32081 258.209 2.00001 258.604 2.00001V2.00001C259.396 2.00001 260.037 2.6416 260.037 3.43304L260.037 117H257.888Z" fill="#F20303" fill-opacity="0.05"/>
<path d="M263.037 117L263.037 2.71652C263.037 2.32081 263.358 2.00001 263.754 2.00001V2.00001C264.545 2.00001 265.187 2.6416 265.187 3.43304L265.187 117H263.037Z" fill="#F20303" fill-opacity="0.05"/>
<path d="M268.187 117L268.187 2.71652C268.187 2.32081 268.508 2.00001 268.903 2.00001V2.00001C269.695 2.00001 270.336 2.6416 270.336 3.43304L270.336 117H268.187Z" fill="#F20303" fill-opacity="0.05"/>
<path d="M273.336 117L273.336 2.71652C273.336 2.32081 273.657 2.00001 274.053 2.00001V2.00001C274.844 2.00001 275.486 2.6416 275.486 3.43304L275.486 117H273.336Z" fill="#F20303" fill-opacity="0.05"/>
<path d="M278.486 117L278.486 2.71652C278.486 2.32081 278.807 2.00001 279.203 2.00001V2.00001C279.994 2.00001 280.636 2.6416 280.636 3.43304L280.636 117H278.486Z" fill="#F20303" fill-opacity="0.05"/>
<path d="M283.636 117L283.636 2.71652C283.636 2.32081 283.956 2.00001 284.352 2.00001V2.00001C285.143 2.00001 285.785 2.6416 285.785 3.43304L285.785 117H283.636Z" fill="#F20303" fill-opacity="0.05"/>
<path d="M288.785 117L288.785 2.71652C288.785 2.32081 289.106 2.00001 289.502 2.00001V2.00001C290.293 2.00001 290.935 2.6416 290.935 3.43304L290.935 117H288.785Z" fill="#F20303" fill-opacity="0.05"/>
<path d="M293.935 117L293.935 2.71652C293.935 2.32081 294.255 2.00001 294.651 2.00001V2.00001C295.443 2.00001 296.084 2.6416 296.084 3.43304L296.084 117H293.935Z" fill="#F20303" fill-opacity="0.05"/>
<path d="M299.084 117L299.084 2.71652C299.084 2.32081 299.405 2.00001 299.801 2.00001V2.00001C300.592 2.00001 301.234 2.6416 301.234 3.43304L301.234 117H299.084Z" fill="#F20303" fill-opacity="0.05"/>
<path d="M304.234 117L304.234 2.71652C304.234 2.32081 304.554 2.00001 304.95 2.00001V2.00001C305.742 2.00001 306.383 2.6416 306.383 3.43304L306.383 117H304.234Z" fill="#F20303" fill-opacity="0.05"/>
<path d="M309.383 117L309.383 2.71652C309.383 2.32081 309.704 2.00001 310.1 2.00001V2.00001C310.891 2.00001 311.533 2.6416 311.533 3.43304L311.533 117H309.383Z" fill="#F20303" fill-opacity="0.05"/>
<path d="M11.3737 117L11.3737 2.71652C11.3737 2.32081 11.6945 2.00001 12.0903 2.00001V2.00001C12.8817 2.00001 13.5233 2.6416 13.5233 3.43304L13.5233 117H11.3737Z" fill="#F20303" fill-opacity="0.05"/>
<path d="M5.99994 117L5.99994 2.71652C5.99994 2.32081 6.32073 2.00001 6.71645 2.00001V2.00001C7.50789 2.00001 8.14947 2.6416 8.14947 3.43304L8.14947 117H5.99994Z" fill="#F20303" fill-opacity="0.05"/>
</g>
<g filter="url(#filter1_f_908_682)">
<path d="M1 11.7476H945.284C945.679 11.7476 946 12.0684 946 12.4641V12.4641C946 13.2555 945.358 13.8971 944.567 13.8971H1V11.7476Z" fill="#FF0000" fill-opacity="0.08"/>
<path d="M1 17.1216H945.284C945.679 17.1216 946 17.4424 946 17.8381V17.8381C946 18.6295 945.358 19.2711 944.567 19.2711H1V17.1216Z" fill="#FF0000" fill-opacity="0.08"/>
<path d="M1 22.4951H945.284C945.679 22.4951 946 22.8159 946 23.2116V23.2116C946 24.0031 945.358 24.6446 944.567 24.6446H1V22.4951Z" fill="#FF0000" fill-opacity="0.08"/>
<path d="M1 27.8691H945.284C945.679 27.8691 946 28.1899 946 28.5857V28.5857C946 29.3771 945.358 30.0187 944.567 30.0187H1V27.8691Z" fill="#FF0000" fill-opacity="0.08"/>
<path d="M1 33.2432H945.284C945.679 33.2432 946 33.564 946 33.9597V33.9597C946 34.7511 945.358 35.3927 944.567 35.3927H1V33.2432Z" fill="#FF0000" fill-opacity="0.08"/>
<path d="M1 38.6167H945.284C945.679 38.6167 946 38.9375 946 39.3332V39.3332C946 40.1246 945.358 40.7662 944.567 40.7662H1V38.6167Z" fill="#FF0000" fill-opacity="0.08"/>
<path d="M1 43.9907H945.284C945.679 43.9907 946 44.3115 946 44.7072V44.7072C946 45.4987 945.358 46.1403 944.567 46.1403H1V43.9907Z" fill="#FF0000" fill-opacity="0.08"/>
<path d="M1 49.3643H945.284C945.679 49.3643 946 49.6851 946 50.0808V50.0808C946 50.8722 945.358 51.5138 944.567 51.5138H1V49.3643Z" fill="#FF0000" fill-opacity="0.08"/>
<path d="M1 54.7383H945.284C945.679 54.7383 946 55.0591 946 55.4548V55.4548C946 56.2462 945.358 56.8878 944.567 56.8878H1V54.7383Z" fill="#FF0000" fill-opacity="0.08"/>
<path d="M1 60.1123H945.284C945.679 60.1123 946 60.4331 946 60.8288V60.8288C946 61.6203 945.358 62.2618 944.567 62.2618H1V60.1123Z" fill="#FF0000" fill-opacity="0.08"/>
<path d="M1 65.4858H945.284C945.679 65.4858 946 65.8066 946 66.2024V66.2024C946 66.9938 945.358 67.6354 944.567 67.6354H1V65.4858Z" fill="#FF0000" fill-opacity="0.08"/>
<path d="M1 70.8599H945.284C945.679 70.8599 946 71.1807 946 71.5764V71.5764C946 72.3678 945.358 73.0094 944.567 73.0094H1V70.8599Z" fill="#FF0000" fill-opacity="0.08"/>
<path d="M1 76.2334H945.284C945.679 76.2334 946 76.5542 946 76.9499V76.9499C946 77.7413 945.358 78.3829 944.567 78.3829H1V76.2334Z" fill="#FF0000" fill-opacity="0.08"/>
<path d="M1 81.6074H945.284C945.679 81.6074 946 81.9282 946 82.3239V82.3239C946 83.1154 945.358 83.757 944.567 83.757H1V81.6074Z" fill="#FF0000" fill-opacity="0.08"/>
<path d="M1 86.9814H945.284C945.679 86.9814 946 87.3022 946 87.698V87.698C946 88.4894 945.358 89.131 944.567 89.131H1V86.9814Z" fill="#FF0000" fill-opacity="0.08"/>
<path d="M1 92.3555H945.284C945.679 92.3555 946 92.6763 946 93.072V93.072C946 93.8634 945.358 94.505 944.567 94.505H1V92.3555Z" fill="#FF0000" fill-opacity="0.08"/>
<path d="M1 97.729H945.284C945.679 97.729 946 98.0498 946 98.4455V98.4455C946 99.237 945.358 99.8785 944.567 99.8785H1V97.729Z" fill="#FF0000" fill-opacity="0.08"/>
<path d="M1 103.103H945.284C945.679 103.103 946 103.423 946 103.819V103.819C946 104.61 945.358 105.252 944.567 105.252H1V103.103Z" fill="#FF0000" fill-opacity="0.08"/>
<path d="M1 108.477H945.284C945.679 108.477 946 108.797 946 109.193V109.193C946 109.985 945.358 110.626 944.567 110.626H1V108.477Z" fill="#FF0000" fill-opacity="0.08"/>
<path d="M1 113.851H945.284C945.679 113.851 946 114.171 946 114.567V114.567C946 115.359 945.358 116 944.567 116H1V113.851Z" fill="#FF0000" fill-opacity="0.08"/>
<path d="M1 6.37402H945.284C945.679 6.37402 946 6.69482 946 7.09053V7.09053C946 7.88197 945.358 8.52356 944.567 8.52356H1V6.37402Z" fill="#FF0000" fill-opacity="0.08"/>
<path d="M1 1H945.284C945.679 1 946 1.32079 946 1.71651V1.71651C946 2.50795 945.358 3.14953 944.567 3.14953H1V1Z" fill="#FF0000" fill-opacity="0.08"/>
</g>
<defs>
<filter id="filter0_f_908_682" x="4.99994" y="1" width="307.533" height="117" filterUnits="userSpaceOnUse" color-interpolation-filters="sRGB">
<feFlood flood-opacity="0" result="BackgroundImageFix"/>
<feBlend mode="normal" in="SourceGraphic" in2="BackgroundImageFix" result="shape"/>
<feGaussianBlur stdDeviation="0.5" result="effect1_foregroundBlur_908_682"/>
</filter>
<filter id="filter1_f_908_682" x="0" y="0" width="947" height="117" filterUnits="userSpaceOnUse" color-interpolation-filters="sRGB">
<feFlood flood-opacity="0" result="BackgroundImageFix"/>
<feBlend mode="normal" in="SourceGraphic" in2="BackgroundImageFix" result="shape"/>
<feGaussianBlur stdDeviation="0.5" result="effect1_foregroundBlur_908_682"/>
</filter>
</defs>
</svg>
